<svg width="10" height="6" fill="none" xmlns="http://www.w3.org/2000/svg"><path fill-rule="evenodd" clip-rule="evenodd" d="M1.09 1.084A.31.31 0 0 1 1.308 1a.328.328 0 0 1 .218.084L5 4.31l3.474-3.226A.31.31 0 0 1 8.692 1a.329.329 0 0 1 .218.084.268.268 0 0 1 0 .404L5.218 4.916A.31.31 0 0 1 5 5a.328.328 0 0 1-.218-.084L1.09 1.488a.268.268 0 0 1 0-.404Z" fill="#003154"/><path fill-rule="evenodd" clip-rule="evenodd" d="M1.09 1.084A.31.31 0 0 1 1.308 1a.328.328 0 0 1 .218.084L5 4.31l3.474-3.226A.31.31 0 0 1 8.692 1a.329.329 0 0 1 .218.084.268.268 0 0 1 0 .404L5.218 4.916A.31.31 0 0 1 5 5a.328.328 0 0 1-.218-.084L1.09 1.488a.268.268 0 0 1 0-.404Z" fill="#003154"/><path clip-rule="evenodd" d="M1.09 1.084A.31.31 0 0 1 1.308 1a.328.328 0 0 1 .218.084L5 4.31l3.474-3.226A.31.31 0 0 1 8.692 1a.329.329 0 0 1 .218.084.268.268 0 0 1 0 .404L5.218 4.916A.31.31 0 0 1 5 5a.328.328 0 0 1-.218-.084L1.09 1.488a.268.268 0 0 1 0-.404Z" stroke="#003154" stroke-width=".5"/><path clip-rule="evenodd" d="M1.09 1.084A.31.31 0 0 1 1.308 1a.328.328 0 0 1 .218.084L5 4.31l3.474-3.226A.31.31 0 0 1 8.692 1a.329.329 0 0 1 .218.084.268.268 0 0 1 0 .404L5.218 4.916A.31.31 0 0 1 5 5a.328.328 0 0 1-.218-.084L1.09 1.488a.268.268 0 0 1 0-.404Z" stroke="#003154" stroke-width=".5"/></svg>