<svg width="127" height="24" fill="none" xmlns="http://www.w3.org/2000/svg"><path fill-rule="evenodd" clip-rule="evenodd" d="M14.835.07a2.628 2.628 0 0 0-1.933 1.986c-.054.256-.066 1.386-.066 6.562l-.001 6.253-.279.19a4.79 4.79 0 0 0-1.912 2.706c-.16.604-.182 1.641-.047 2.271.404 1.883 1.78 3.357 3.576 3.832.408.109.567.125 1.22.13.58.003.836-.015 1.122-.083.998-.234 1.72-.645 2.433-1.384 1.618-1.678 1.889-4.29.638-6.16a5.13 5.13 0 0 0-1.229-1.283L18 14.825l-.013-6.417-.012-6.418-.106-.28C17.404.476 16.09-.234 14.835.07Zm1.05.938c.491.146.906.526 1.079.989.094.251.095.338.098 6.695.002 4.863.016 6.48.059 6.602.044.128.13.206.408.372.423.254 1.13.948 1.354 1.331a3.77 3.77 0 0 1 .535 2.008 4.104 4.104 0 0 1-1.086 2.824c-.711.772-1.607 1.188-2.68 1.245-2.53.135-4.576-2.135-4.176-4.632.071-.44.284-1.026.513-1.413.268-.45.778-.977 1.254-1.293.215-.144.423-.305.461-.36.06-.087.07-.92.07-6.54 0-6.13.004-6.452.086-6.717.274-.88 1.161-1.367 2.025-1.11Zm-9.692.46a4.844 4.844 0 0 0-2.82 1.498c-1.83 1.924-1.83 4.855 0 6.779 1.031 1.085 2.438 1.643 3.891 1.543 2.134-.148 3.92-1.633 4.478-3.726.107-.4.122-.547.122-1.207 0-.659-.015-.806-.122-1.206-.574-2.152-2.42-3.642-4.61-3.722a5.1 5.1 0 0 0-.939.042Zm1.713.995a5.17 5.17 0 0 1 1.3.588 4.173 4.173 0 0 1 1.618 2.298c.138.512.15 1.452.025 1.922-.333 1.252-1.109 2.19-2.246 2.718-.614.285-.947.354-1.682.35-.543-.004-.693-.022-1.047-.129-1.17-.352-2.04-1.086-2.542-2.146-.277-.583-.368-1.008-.368-1.709 0-.478.022-.69.101-.985a4.056 4.056 0 0 1 3.307-2.984c.349-.055 1.177-.014 1.534.077Zm11.302-.049c-.268.148-.31.506-.087.73l.137.137h1.086c1.197 0 1.301-.02 1.407-.276a.471.471 0 0 0-.121-.528c-.117-.11-.133-.112-1.206-.123-.897-.009-1.11.002-1.216.06Zm-13.492.935c-.18.078-.25.198-.25.423 0 .136.099.316.518.944.48.718.518.791.505.973-.014.193-.018.197-.202.21-.17.013-.262-.034-.964-.496-.427-.28-.827-.523-.888-.54-.315-.082-.625.278-.518.602.042.126.153.225.554.496.276.186.52.354.542.374.023.02-.203.198-.502.396-.44.291-.553.39-.594.516-.113.342.21.688.55.59.078-.022.46-.253.85-.514.664-.445.725-.475.945-.475h.236v.189c0 .162-.073.298-.516.961-.431.645-.516.802-.516.951 0 .338.27.538.585.434.14-.046.225-.14.502-.556.183-.275.347-.516.365-.536.017-.02.196.207.396.504.315.468.387.546.54.592.236.07.454-.036.552-.27.095-.228.064-.3-.495-1.136-.426-.637-.474-.73-.474-.92v-.213h.223c.205 0 .283.04.95.485.4.267.779.498.841.514.164.042.41-.078.494-.242.163-.315.062-.47-.58-.895-.286-.19-.52-.349-.52-.355 0-.006.234-.165.52-.354.642-.424.743-.58.58-.896-.085-.164-.33-.283-.494-.24-.062.015-.458.257-.879.537-.648.43-.794.507-.95.507h-.185v-.235c0-.221.03-.281.474-.944.559-.836.59-.908.495-1.136-.098-.233-.316-.34-.55-.27-.15.044-.224.126-.54.592-.201.297-.38.524-.398.504-.018-.02-.181-.26-.364-.535-.257-.386-.366-.511-.483-.552-.182-.063-.171-.064-.355.016Zm13.53.942c-.192.1-.259.207-.26.413-.002.138.03.212.135.317l.137.137h.64c.73 0 .835-.037.921-.326a.439.439 0 0 0-.264-.546c-.226-.094-1.125-.09-1.308.005Zm-4.08 1.437c-.222.129-.219.046-.219 5.345 0 3.943-.012 4.981-.058 4.994-.741.197-1.174.427-1.608.853-.34.333-.59.738-.763 1.236-.108.31-.124.43-.123.92 0 .482.019.617.126.942a3.097 3.097 0 0 0 2.692 2.113c1.197.1 2.412-.598 2.95-1.694.226-.457.308-.816.31-1.343.002-.88-.267-1.528-.896-2.155-.49-.49-.905-.719-1.562-.864l-.13-.029V5.964l-.12-.145c-.101-.12-.156-.144-.317-.143a.727.727 0 0 0-.282.052Zm3.94.56c-.176.209-.167.452.022.634l.143.137.995.015c1.16.017 1.318-.013 1.46-.276.106-.199.077-.374-.09-.54l-.113-.114h-2.296l-.122.145Zm.015 1.87c-.246.247-.157.632.176.758.184.07 1.074.055 1.258-.022a.439.439 0 0 0 .264-.546c-.086-.289-.192-.326-.922-.326h-.639l-.137.137Zm0 1.878c-.156.157-.187.428-.069.597.133.19.282.21 1.4.196 1.041-.014 1.061-.016 1.178-.126a.572.572 0 0 0 .148-.244c.038-.173-.087-.437-.24-.506-.077-.035-.49-.054-1.199-.054h-1.08l-.138.137Zm-3.118 7.006c.322.083.643.275.916.549 1.22 1.223.546 3.288-1.17 3.583-.633.108-1.338-.125-1.812-.599-.792-.792-.83-2.091-.084-2.89.597-.637 1.324-.854 2.15-.643ZM44.133.06c-.16.077-.829 1.119-1.233 1.922-.466.925-.532 1.517-.237 2.118.192.39.512.707.898.892.282.135.343.146.798.146.435 0 .523-.014.759-.125.644-.302 1.117-1.014 1.117-1.681 0-.462-.408-1.405-1.07-2.47-.512-.824-.694-.965-1.032-.803Zm.564 1.853c.356.623.6 1.2.6 1.417 0 .183-.113.46-.248.604-.312.334-.902.39-1.24.119-.44-.355-.492-.753-.184-1.404.224-.473.682-1.288.725-1.287.018 0 .174.248.347.55Zm6.776 1.428c-.308.112-1.508 2.243-1.648 2.927-.253 1.229.856 2.38 2.1 2.18 1.06-.171 1.768-1.162 1.559-2.18-.087-.424-.636-1.533-1.142-2.308-.297-.456-.4-.578-.524-.621-.177-.062-.168-.062-.345.002Zm-11.771.468c-.145.053-.676.79-1.617 2.244-2.563 3.962-3.977 6.955-4.08 8.632-.032.534.073 1.33.25 1.888a5.929 5.929 0 0 0 3.763 3.842c.65.22 1.123.291 1.94.295l.736.004.237.394c.33.55.56.836 1.037 1.289.821.782 1.761 1.272 2.907 1.515.545.116 1.701.117 2.236.003 1.194-.256 2.11-.739 2.973-1.567l.454-.436.254.138c.14.075.475.211.746.302a4.875 4.875 0 0 0 4.334-.63 5.079 5.079 0 0 0 1.983-2.839c.111-.415.126-.553.126-1.218 0-.666-.015-.804-.126-1.22a5.022 5.022 0 0 0-3.575-3.572c-.403-.106-.568-.124-1.195-.128-.62-.003-.789.012-1.146.105-.487.128-1.049.356-1.386.564-.13.08-.246.146-.256.146-.01 0-.139-.226-.286-.5a52.508 52.508 0 0 0-1.607-2.738c-.748-1.2-2.02-3.086-2.139-3.168a.588.588 0 0 0-.28-.069c-.253 0-.325.086-1.272 1.512l-.794 1.197-.51-.89a65.921 65.921 0 0 0-2.445-3.901c-.605-.901-.783-1.133-.906-1.185-.175-.073-.18-.073-.356-.01Zm12.35 1.493c.552.99.637 1.344.417 1.743a.979.979 0 0 1-.616.466c-.625.168-1.276-.475-1.11-1.097.066-.248.393-.928.68-1.413.257-.435.202-.46.628.301Zm-11.505.763c1.037 1.576 2.121 3.371 2.659 4.402l.136.261-.282.466c-1.25 2.061-2.19 3.953-2.609 5.252-.278.86-.33 1.209-.3 1.99.014.376.06.818.1.983.042.165.062.313.047.328-.06.059-.998.017-1.381-.061a4.83 4.83 0 0 1-2.415-1.256 4.889 4.889 0 0 1-1.418-2.374c-.098-.371-.121-.573-.126-1.089-.005-.559.01-.688.124-1.097.475-1.701 1.94-4.485 4.034-7.664.412-.626.755-1.138.763-1.138.007 0 .308.448.668.997Zm6.1 3.26c1.072 1.63 1.771 2.781 2.501 4.115l.41.748-.242.267c-.483.534-.911 1.401-1.094 2.211-.118.523-.107 1.543.021 2.064.227.918.603 1.636 1.188 2.262l.338.361-.23.236a5.011 5.011 0 0 1-3.82 1.478c-1.225-.07-2.309-.558-3.194-1.437-.74-.734-1.172-1.54-1.382-2.577-.116-.574-.076-1.434.092-1.998.411-1.376 1.542-3.635 2.995-5.982.605-.977 1.729-2.674 1.771-2.674.02 0 .31.417.645.926ZM54 13.77a4.077 4.077 0 0 1 2.394 1.691c1.367 2.053.581 4.79-1.674 5.836-.607.282-.946.352-1.682.349-.548-.002-.69-.02-1.053-.13-1.395-.42-2.434-1.483-2.8-2.865-.141-.532-.14-1.443 0-1.97.422-1.57 1.646-2.684 3.274-2.98.32-.059 1.206-.019 1.541.07Zm-2.192.896c-.16.087-.224.204-.224.413 0 .13.105.324.516.942.44.664.516.806.516.965v.187h-.235c-.22 0-.281-.031-.98-.497-.798-.531-.95-.586-1.191-.429a.532.532 0 0 0-.173.242c-.09.275.018.423.588.797.271.178.504.341.517.362.013.02-.22.199-.516.395-.435.29-.549.388-.59.514-.063.19.03.455.189.54.25.134.392.08 1.216-.468.71-.472.806-.523.97-.51.177.015.182.02.196.212.013.182-.025.255-.505.973-.42.628-.518.808-.518.944 0 .23.072.345.266.427.301.126.439.036.82-.539.184-.275.35-.518.37-.54.02-.022.19.189.377.47.188.28.375.534.415.565.227.173.562.08.692-.194.104-.218.065-.307-.496-1.146-.444-.663-.474-.723-.474-.944v-.236h.185c.157 0 .302.078.95.508.421.28.816.52.878.537.164.043.41-.077.494-.241.163-.315.062-.47-.582-.897-.286-.19-.504-.359-.484-.377.02-.018.26-.182.534-.364.357-.238.514-.372.558-.477a.448.448 0 0 0-.152-.535c-.24-.178-.379-.13-1.19.41-.685.458-.762.498-.968.498h-.223v-.212c0-.191.048-.284.474-.92.561-.84.6-.929.496-1.146-.107-.224-.325-.328-.549-.26-.15.044-.22.123-.516.57a7.298 7.298 0 0 1-.376.538c-.018.012-.187-.212-.376-.498-.422-.638-.59-.747-.9-.58ZM77.97.031c-2.707.3-5.034 1.429-6.876 3.335-1.37 1.419-2.289 3.057-2.767 4.938C68.067 9.326 68 9.91 68 11.08c.001 1.159.066 1.702.323 2.722 1.083 4.284 4.674 7.518 9.132 8.221.75.118 2.438.118 3.166 0 .62-.102 1.35-.275 1.798-.428l.33-.112.177.29c.24.389.883 1.048 1.313 1.344 2.482 1.716 5.892.841 7.228-1.853.145-.293.31-.72.38-.986.11-.415.124-.555.123-1.22 0-.657-.016-.808-.122-1.206a5.352 5.352 0 0 0-.738-1.606c-.297-.429-.956-1.072-1.345-1.312l-.29-.178.093-.266c.15-.432.362-1.347.447-1.93.098-.673.11-2.228.022-2.865-.52-3.763-2.767-6.932-6.067-8.553A11.078 11.078 0 0 0 80.644.097c-.638-.092-2.11-.128-2.675-.066Zm2.024.937a10.175 10.175 0 0 1 6.966 3.778c2.04 2.564 2.723 5.936 1.833 9.056-.169.593-.124.567-.734.421-.56-.133-1.582-.116-2.162.037-1.386.366-2.386 1.126-3.172 2.41-.05.081-.08.062-.392-.24a6.974 6.974 0 0 1-1.882-3.206l-.105-.39.194-.194.194-.194 1.563.268c1.681.287 2.145.322 2.643.196a2.988 2.988 0 0 0 2.158-2.292c.102-.536.1-2.778-.003-3.123a1.226 1.226 0 0 0-1.147-.85c-.377 0-.682.159-.965.499-1.069 1.286-2.275 2.092-3.72 2.486l-.439.12-.189-.203-.19-.204.266-1.572c.283-1.682.315-2.117.19-2.606a3.135 3.135 0 0 0-1.228-1.74 3.77 3.77 0 0 0-.67-.32l-.4-.144h-3.098l-.25.139a1.198 1.198 0 0 0-.505 1.555c.083.18.21.322.504.568.541.453 1.093 1.047 1.412 1.522.344.512.75 1.36.896 1.871.198.69.2.657-.037.858l-.209.178-1.539-.267c-1.676-.29-2.121-.322-2.636-.189-.77.2-1.556.837-1.898 1.538-.289.592-.32.844-.304 2.455.014 1.342.02 1.42.116 1.598.233.432.595.653 1.072.656.456.002.711-.134 1.061-.564.897-1.101 2.077-1.921 3.326-2.312.756-.236.73-.236.945-.003l.187.203-.268 1.55c-.293 1.697-.323 2.13-.185 2.653.255.967 1.04 1.77 2.044 2.091.212.068.486.086 1.557.103l1.3.02.029.266c.038.347.144.889.206 1.05l.049.128-.386.117c-1.018.309-1.75.414-2.92.418-1.044.004-1.632-.066-2.54-.3a10.149 10.149 0 0 1-7.102-6.652c-1.048-3.204-.48-6.581 1.562-9.297.39-.519 1.218-1.372 1.707-1.758C74.784 1.512 77.442.714 79.995.968Zm-1.436 2.98c.578.15 1.04.539 1.305 1.1.23.488.225.838-.036 2.348a130.39 130.39 0 0 1-.24 1.362c-.025.119-.028.12-.498.114l-.474-.005-.15-.49a7.724 7.724 0 0 0-1.633-2.942c-.268-.304-.46-.487-1.085-1.027-.188-.163-.218-.308-.093-.446.071-.08.177-.086 1.35-.086.996 0 1.335.016 1.554.072Zm7.598 3.74c.062.088.073.295.073 1.312 0 .708-.022 1.31-.052 1.456a2.026 2.026 0 0 1-1.092 1.4c-.516.253-.826.247-2.509-.045-.757-.13-1.382-.238-1.389-.238-.007 0 .006-.111.028-.247.022-.135.028-.353.012-.484l-.028-.238.274-.061c.695-.155 1.604-.566 2.355-1.066.567-.378 1.346-1.088 1.751-1.597.19-.24.262-.296.37-.296.085 0 .16.037.207.104ZM79.42 9.863c.902.268 1.17 1.473.47 2.106-.257.232-.485.32-.842.324-.379.004-.663-.122-.93-.413-.19-.205-.336-.566-.336-.824 0-.484.382-1.015.845-1.175.317-.11.475-.113.793-.018Zm-3.961.423c.67.113 1.263.216 1.315.229.09.02.096.055.09.5l-.005.48-.371.103c-1.08.3-2.033.81-2.968 1.589-.356.296-.614.566-1.159 1.213-.129.153-.269.165-.399.035-.089-.089-.094-.156-.094-1.35 0-1.65.065-1.914.605-2.452.42-.419.986-.632 1.53-.577.13.013.784.117 1.456.23Zm3.789 2.95c.165-.022.227-.013.241.034.557 1.896 1.255 3.042 2.535 4.158l.277.241-.06.284-.06.284h-1.142c-.659 0-1.246-.022-1.39-.052a2.01 2.01 0 0 1-1.586-2.244c.055-.38.36-2.19.426-2.52l.047-.238.245.04c.134.023.344.028.467.012Zm8.79 1.95c2.065.527 3.365 2.596 2.936 4.673-.172.834-.54 1.494-1.17 2.095-1.556 1.487-3.94 1.484-5.516-.007a4.105 4.105 0 0 1-1.115-1.903c-.14-.522-.142-1.443-.004-1.952.428-1.588 1.71-2.752 3.297-2.995.419-.064 1.128-.024 1.573.09Zm-2.216.866c-.18.079-.25.198-.25.423 0 .136.1.316.519.944.48.718.518.791.504.973-.014.195-.016.197-.21.211-.182.013-.256-.025-.973-.504-.648-.434-.806-.52-.955-.52-.225 0-.365.098-.432.302-.095.287.008.428.6.82.288.19.514.36.502.379-.011.018-.243.18-.514.358-.57.374-.68.522-.588.797.03.09.107.2.173.242.244.16.38.112 1.183-.424.707-.471.768-.502.989-.502h.235v.187c0 .16-.076.301-.517.965-.44.663-.516.805-.516.965 0 .325.318.538.616.415.105-.044.244-.209.5-.593.195-.294.37-.517.388-.497.018.02.181.26.363.533.366.55.504.653.774.576.195-.056.379-.321.344-.496-.014-.07-.248-.461-.52-.868-.454-.681-.494-.759-.494-.964v-.223h.223c.206 0 .283.04.964.494.407.272.798.506.868.52.175.035.44-.149.496-.345.077-.27-.025-.407-.575-.773a17.518 17.518 0 0 1-.534-.363c-.02-.018.204-.193.497-.388.385-.257.55-.396.593-.5a.442.442 0 0 0-.415-.616c-.16 0-.301.076-.965.516-.664.44-.806.516-.965.516h-.187v-.235c0-.22.031-.281.502-.988.536-.804.584-.94.424-1.183a.532.532 0 0 0-.242-.174c-.275-.09-.423.019-.797.588-.178.272-.34.504-.358.515-.018.011-.189-.214-.379-.502-.256-.388-.384-.538-.497-.585-.183-.077-.187-.077-.374.005ZM112.856.029a12.082 12.082 0 0 0-8.922 5.418c-3.02 4.599-2.452 10.853 1.345 14.793.34.354.469.423.689.37.178-.044 1.968-1.838 1.993-1.998.033-.217-.051-.381-.363-.713-.317-.335-.867-1.046-.867-1.119 0-.022.2-.158.445-.302.244-.143.466-.302.492-.351a.497.497 0 0 0-.089-.57c-.194-.194-.374-.181-.778.056-.631.369-.556.368-.727.006-.358-.758-.681-1.969-.737-2.763l-.027-.384.574-.016c.562-.015.576-.018.687-.147a.452.452 0 0 0 .113-.315.452.452 0 0 0-.113-.314c-.111-.129-.125-.132-.687-.147l-.574-.016.027-.384c.056-.8.368-1.966.727-2.718l.174-.364.446.258c.528.306.689.328.895.122a.497.497 0 0 0 .089-.569c-.026-.05-.248-.208-.492-.352-.245-.144-.445-.274-.445-.289 0-.107.64-.889 1.126-1.375.487-.486 1.268-1.126 1.376-1.126.015 0 .145.2.289.444.144.245.302.467.351.493a.499.499 0 0 0 .569-.089c.206-.206.185-.367-.121-.895l-.259-.446.365-.174c.751-.359 1.917-.671 2.717-.728l.384-.027.016.574c.016.563.019.577.148.688a.486.486 0 0 0 .628 0c.129-.111.132-.125.147-.688l.016-.574.385.027c.799.057 1.965.369 2.717.728l.364.174-.258.446c-.306.528-.328.689-.122.895a.499.499 0 0 0 .569.09c.05-.027.208-.25.352-.494s.274-.444.289-.444c.107 0 .889.64 1.375 1.126.486.486 1.126 1.268 1.126 1.375 0 .015-.2.145-.444.29-.245.143-.467.302-.493.351a.499.499 0 0 0 .089.57c.205.204.367.183.895-.12l.446-.257.174.362c.358.745.671 1.915.728 2.716l.027.384-.574.016c-.562.015-.577.018-.687.147a.485.485 0 0 0 0 .629c.11.129.125.132.687.147l.574.016-.027.384c-.029.412-.204 1.344-.263 1.404-.02.02-.182 0-.361-.043-.433-.106-1.507-.107-1.972-.002-1.013.228-1.867.704-2.555 1.424-.527.552-.839 1.045-1.081 1.707-.529 1.449-.384 2.954.412 4.285.281.47.934 1.163 1.399 1.484 2.486 1.718 5.896.845 7.232-1.851.145-.293.309-.72.38-.986.11-.416.124-.555.123-1.22-.001-.66-.016-.808-.125-1.22a6.205 6.205 0 0 0-.385-.995l-.261-.525.146-.414c.985-2.79.837-6.098-.394-8.829a12.228 12.228 0 0 0-5.094-5.569C118.669.823 117.145.31 115.672.092c-.574-.085-2.24-.122-2.816-.063Zm2.769 1.005a11.042 11.042 0 0 1 6.197 3.144 10.75 10.75 0 0 1 2.089 2.885 11.2 11.2 0 0 1 1.059 3.36c.118.775.119 2.364.003 3.12-.09.586-.215 1.155-.365 1.658l-.095.32-.208-.192c-.189-.174-.843-.628-.961-.668-.03-.01-.012-.157.048-.402.466-1.87.318-3.982-.407-5.808-1.045-2.63-3.246-4.72-5.902-5.604a9.59 9.59 0 0 0-7.325.485 9.675 9.675 0 0 0-4.908 5.611 9.656 9.656 0 0 0 1.667 9.146l.32.392-.487.488c-.267.269-.502.483-.522.476-.084-.028-.73-.852-1.075-1.371-.873-1.313-1.472-2.892-1.714-4.514-.115-.774-.114-2.412.002-3.161.661-4.25 3.542-7.628 7.646-8.967.699-.228 1.38-.362 2.474-.487.35-.04 2.018.02 2.464.09Zm-1.932 4.736-.129.112-.453 3.373-.453 3.373-.3.305c-.479.487-.699 1.004-.699 1.643 0 1.107.764 2.06 1.845 2.302.342.076.974.036 1.307-.084.91-.328 1.541-1.237 1.541-2.218 0-.639-.22-1.156-.699-1.643l-.3-.305-.452-3.373-.453-3.373-.13-.112a.454.454 0 0 0-.312-.112.455.455 0 0 0-.313.112Zm.492 5.227c.083.639.151 1.183.15 1.209 0 .026-.142.046-.329.046-.187 0-.329-.02-.33-.046-.003-.144.306-2.37.33-2.37.015 0 .096.522.179 1.161Zm.451 2.332c.618.302.911 1 .71 1.691-.104.356-.495.767-.844.885-.55.187-1.081.064-1.489-.344-.292-.291-.416-.584-.415-.982.001-1.043 1.094-1.713 2.038-1.25Zm7.422 1.857c2.064.526 3.364 2.596 2.935 4.673-.172.834-.541 1.494-1.169 2.095-1.557 1.487-3.942 1.484-5.518-.007a4.11 4.11 0 0 1-1.114-1.903c-.14-.522-.142-1.443-.005-1.953.429-1.587 1.71-2.751 3.297-2.994.42-.064 1.129-.024 1.574.09Zm-2.217.866c-.179.078-.25.198-.25.422 0 .137.099.317.519.945.479.718.517.791.504.973-.014.195-.016.197-.211.21-.182.014-.255-.024-.973-.504-.648-.433-.805-.518-.954-.518-.226 0-.365.097-.433.3-.095.288.009.429.601.82.288.19.513.361.502.38-.011.018-.243.18-.515.358-.569.374-.679.522-.588.797.03.09.108.199.174.242.244.16.379.112 1.183-.424.707-.471.768-.502.988-.502h.235v.187c0 .159-.076.3-.516.965-.44.663-.516.805-.516.965 0 .325.317.538.616.415.104-.044.243-.209.5-.593.195-.294.37-.517.388-.497.018.02.181.26.363.533.366.55.504.653.774.576.195-.056.379-.32.344-.496-.014-.07-.248-.461-.52-.868-.454-.681-.494-.759-.494-.964v-.223h.223c.205 0 .283.04.964.494.407.272.798.506.868.52.175.035.44-.149.496-.345.077-.27-.025-.407-.575-.773a16.495 16.495 0 0 1-.534-.364c-.02-.018.203-.192.497-.387.385-.257.55-.396.593-.5a.442.442 0 0 0-.415-.617c-.159 0-.301.076-.965.517-.664.44-.806.516-.965.516h-.187v-.235c0-.22.031-.281.502-.988.536-.804.584-.94.424-1.184a.533.533 0 0 0-.242-.173c-.275-.09-.423.018-.797.588-.178.272-.34.503-.358.515-.018.011-.189-.215-.379-.502-.256-.388-.384-.539-.497-.586-.183-.076-.187-.076-.374.005Z" fill="#003154"/></svg>