<svg width="129" height="20" fill="none" xmlns="http://www.w3.org/2000/svg"><g clip-path="url(#a)"><path fill-rule="evenodd" clip-rule="evenodd" d="M34.535.002c-8.125 0-11.747 4.773-11.747 10.033 0 5.248 4.174 9.963 11.747 9.963 8.019 0 11.84-4.715 11.84-9.963 0-5.26-3.821-10.033-11.84-10.033Zm3.515 11.18c.141 3.406-.752 6.847-2.551 7.24-1.905-.255-3.928-3.87-4.14-9.372-.129-3.198.436-6.754 2.423-7.484 1.67.301 4.045 3.696 4.268 9.616ZM59.085.465h-8.242v19.07h13.804v-2.202l-5.562.012V.465Zm17.579 14.123h-6.197s-.952 4.251-1.129 4.947H66.94L71.337.465h10.935l4.34 19.07h-8.808l-1.14-4.947Zm-.447-1.97L73.995 2.98h-.847l-2.222 9.64h5.291ZM118.123.465h-10.394v19.07h8.243V12.78l1.105.105 3.045 6.65H129l-4.292-6.465-.341-.602c2.281-1.055 3.692-2.92 3.763-6.106.047-1.599-.447-3.244-1.658-4.344-1.86-1.695-4.629-1.63-7.086-1.573-.433.01-.856.02-1.263.02Zm.094 10.96s-1.787-.116-2.234-.197V2.006c3.928 0 3.928 3.21 3.928 4.391 0 2.861-1.694 5.028-1.694 5.028Zm-18.013 8.11h-8.243V.465h8.243v19.07ZM20.071 6.2c0-5.318-4.738-5.735-9.594-5.735H0v19.07h8.254v-5.341c.788.162 1.811.255 2.881.255 4.421 0 8.936-1.483 8.936-8.249Zm-9.594 6.43s-1.729-.093-2.223-.197V2.006c3.892 0 3.892 3.626 3.892 4.97 0 3.603-1.67 5.654-1.67 5.654Z" fill="#003154"/></g><defs><clipPath id="a"><path fill="#fff" d="M0 0h129v20H0z"/></clipPath></defs></svg>