<svg width="127" height="24" viewBox="0 0 127 24" fill="none" xmlns="http://www.w3.org/2000/svg">
<path fill-rule="evenodd" clip-rule="evenodd" d="M14.8345 0.0699906C13.8739 0.302431 13.1068 1.09077 12.9022 2.05583C12.8479 2.31221 12.8364 3.44249 12.8357 8.61843L12.8349 14.8712L12.5562 15.0605C11.6281 15.6908 10.9357 16.6709 10.6438 17.7675C10.4832 18.3708 10.4619 19.4081 10.5971 20.038C11.0014 21.9212 12.3764 23.395 14.1727 23.8705C14.5808 23.9786 14.74 23.9954 15.3931 23.9996C15.9725 24.0033 16.2288 23.9845 16.515 23.9174C17.5129 23.6835 18.2354 23.2725 18.9478 22.5335C20.5661 20.8548 20.8367 18.2421 19.5861 16.3723C19.255 15.8774 18.8481 15.4527 18.3572 15.0896L17.9995 14.8251L17.9871 8.40758L17.9747 1.99007L17.8692 1.71027C17.4037 0.476386 16.0899 -0.23375 14.8345 0.0699906ZM15.8846 1.0083C16.3763 1.15432 16.7908 1.53392 16.964 1.99664C17.0582 2.24846 17.0594 2.33479 17.062 8.69236C17.064 13.5551 17.0784 15.1724 17.1207 15.2942C17.165 15.4216 17.2506 15.4996 17.5288 15.6663C17.9523 15.92 18.6582 16.6137 18.8832 16.9974C19.2521 17.6267 19.418 18.2496 19.4178 19.0054C19.4176 20.0796 19.0402 21.061 18.332 21.8294C17.6208 22.6011 16.7252 23.0169 15.6512 23.0742C13.1214 23.2092 11.0758 20.9395 11.4764 18.4421C11.547 18.0022 11.76 17.4156 11.9894 17.0294C12.2572 16.5787 12.7674 16.0522 13.2431 15.7357C13.4583 15.5925 13.6656 15.4306 13.704 15.3758C13.7648 15.289 13.7737 14.4564 13.7737 8.83688C13.7737 2.70556 13.7778 2.38407 13.8604 2.11868C14.1344 1.23853 15.0214 0.751964 15.8846 1.0083ZM6.19307 1.46895C5.06701 1.65793 4.15659 2.14102 3.37243 2.96569C1.54252 4.89008 1.54252 7.82066 3.37243 9.74505C4.40414 10.83 5.81081 11.3876 7.26398 11.2875C9.39838 11.1405 11.1841 9.65502 11.7425 7.56198C11.8492 7.16197 11.864 7.01477 11.864 6.35537C11.864 5.69598 11.8492 5.54878 11.7425 5.14876C11.1685 2.99718 9.32258 1.50693 7.13185 1.42657C6.78061 1.41371 6.42725 1.42967 6.19307 1.46895ZM7.90634 2.46288C8.27152 2.55587 8.89201 2.83665 9.20528 3.0507C9.97202 3.57463 10.5777 4.4344 10.8241 5.34872C10.9621 5.86068 10.9744 6.80054 10.8493 7.27068C10.5162 8.52253 9.74014 9.46168 8.6031 9.98895C7.98876 10.2738 7.65564 10.343 6.92063 10.3384C6.37806 10.335 6.22757 10.3166 5.87403 10.2103C4.70399 9.8585 3.83384 9.12405 3.33183 8.06446C3.05545 7.48115 2.96383 7.05551 2.96383 6.35537C2.96383 5.87664 2.9857 5.66424 3.0654 5.36966C3.49353 3.78745 4.76215 2.64289 6.37215 2.38618C6.7209 2.33061 7.54937 2.37201 7.90634 2.46288ZM19.208 2.41397C18.9399 2.5622 18.8973 2.91988 19.1211 3.14368L19.2583 3.28088H20.3438C21.5406 3.28088 21.6451 3.26037 21.7511 3.00455C21.8262 2.82323 21.7789 2.61722 21.6298 2.4771C21.5128 2.36708 21.4967 2.36544 20.4235 2.35441C19.5273 2.34521 19.3134 2.35572 19.208 2.41397ZM5.71566 3.34932C5.53626 3.42733 5.46552 3.54674 5.46552 3.77167C5.46552 3.90794 5.56452 4.08818 5.98443 4.71636C6.46424 5.4342 6.50221 5.50742 6.48902 5.68931C6.47499 5.88242 6.47133 5.88622 6.28695 5.89978C6.11717 5.91222 6.02485 5.86467 5.32278 5.40322C4.89573 5.12252 4.49638 4.8798 4.43527 4.86385C4.12007 4.78137 3.81004 5.14088 3.91697 5.4649C3.95856 5.59083 4.06975 5.69039 4.47084 5.96066C4.74684 6.14668 4.99093 6.3151 5.01322 6.33486C5.03556 6.35462 4.80955 6.5328 4.51098 6.73079C4.07182 7.022 3.95832 7.12061 3.91659 7.24711C3.8037 7.58906 4.12678 7.93519 4.46765 7.83742C4.54454 7.8154 4.92671 7.58381 5.31696 7.32278C5.98133 6.87846 6.04156 6.84823 6.26236 6.84823H6.49818V7.03702C6.49818 7.19919 6.42537 7.3347 5.98185 7.99823C5.55086 8.64303 5.46552 8.80013 5.46552 8.94902C5.46552 9.2866 5.73617 9.48727 6.05127 9.38325C6.19162 9.33692 6.2763 9.24309 6.55305 8.82717C6.7362 8.55196 6.90035 8.31075 6.9179 8.29108C6.93546 8.27146 7.1135 8.49803 7.3135 8.79464C7.6294 9.26299 7.70056 9.34086 7.85457 9.387C8.0902 9.4576 8.30776 9.35077 8.40567 9.11645C8.50087 8.8887 8.46951 8.81679 7.91061 7.98114C7.48455 7.34404 7.43695 7.25157 7.43695 7.06058V6.84823H7.66015C7.86508 6.84823 7.94281 6.88789 8.61066 7.33301C9.01067 7.59967 9.38881 7.83089 9.451 7.8469C9.61524 7.88914 9.86021 7.76931 9.94508 7.60526C10.108 7.29016 10.0069 7.13423 9.36463 6.70952C9.07892 6.5206 8.84511 6.36124 8.84511 6.35537C8.84511 6.3495 9.07892 6.19015 9.36463 6.00122C10.0069 5.57652 10.108 5.42059 9.94508 5.10549C9.86012 4.9412 9.61491 4.82151 9.451 4.86427C9.38881 4.88046 8.99339 5.12224 8.57226 5.40158C7.92366 5.83177 7.77829 5.90945 7.62175 5.90945H7.43695V5.67363C7.43695 5.45288 7.46718 5.39261 7.91061 4.7296C8.46951 3.89395 8.50087 3.82204 8.40567 3.59429C8.30823 3.36101 8.09001 3.25319 7.85677 3.32308C7.70568 3.36833 7.63151 3.44958 7.3159 3.91559C7.11467 4.21262 6.93565 4.43952 6.91804 4.4198C6.90044 4.40009 6.73658 4.15934 6.55394 3.88489C6.29747 3.49943 6.18758 3.37387 6.07136 3.33336C5.88905 3.26976 5.89957 3.26929 5.71566 3.34932ZM19.2465 4.29133C19.054 4.39174 18.9871 4.49758 18.9854 4.70439C18.9843 4.84155 19.0163 4.91646 19.1211 5.02123L19.2583 5.15843H19.8972C20.6274 5.15843 20.7328 5.12116 20.8193 4.8323C20.8882 4.60221 20.781 4.38094 20.5547 4.28636C20.329 4.19206 19.4303 4.19548 19.2465 4.29133ZM15.1657 5.72794C14.9437 5.85693 14.9472 5.77357 14.9472 11.0727C14.9472 15.0159 14.9349 16.0544 14.8885 16.0668C14.1479 16.2639 13.7149 16.4936 13.2805 16.9198C12.9408 17.2532 12.6908 17.6583 12.5176 18.156C12.4098 18.4658 12.3936 18.5864 12.3946 19.0758C12.3955 19.5583 12.4136 19.6934 12.5209 20.0182C12.9107 21.1982 13.9672 22.0272 15.2134 22.1312C16.4097 22.2309 17.6255 21.5328 18.1639 20.437C18.3886 19.9798 18.471 19.621 18.4724 19.0944C18.4749 18.2141 18.2059 17.5664 17.5774 16.9392C17.0866 16.4495 16.6722 16.2202 16.015 16.075L15.8859 16.0464V11.005V5.96357L15.7644 5.81919C15.664 5.69982 15.609 5.67499 15.4476 5.67617C15.3401 5.67697 15.2133 5.70025 15.1657 5.72794ZM19.1054 6.28858C18.9302 6.49675 18.9388 6.7405 19.1277 6.92159L19.2715 7.05945L20.266 7.07414C21.4265 7.09123 21.5843 7.06142 21.7254 6.79829C21.832 6.59936 21.8032 6.42447 21.6362 6.25746L21.5229 6.14415H20.3749H19.2269L19.1054 6.28858ZM19.1211 8.1589C18.8746 8.40537 18.9637 8.78985 19.2965 8.9164C19.4812 8.98662 20.3708 8.97061 20.5547 8.89377C20.781 8.79919 20.8882 8.57792 20.8193 8.34783C20.7328 8.05897 20.6274 8.0217 19.8972 8.0217H19.2583L19.1211 8.1589ZM19.1211 10.0364C18.965 10.1925 18.9338 10.464 19.0524 10.6334C19.1854 10.8232 19.3336 10.8439 20.4512 10.8288C21.4932 10.8148 21.5132 10.8127 21.6298 10.703C21.695 10.6417 21.7615 10.5318 21.7775 10.4588C21.8155 10.2859 21.6906 10.0224 21.5376 9.95271C21.4607 9.91765 21.0477 9.89925 20.3393 9.89925H19.2583L19.1211 10.0364ZM16.0025 17.0424C16.3253 17.1252 16.6459 17.317 16.9194 17.5909C18.1398 18.8135 17.4646 20.8794 15.7484 21.1737C15.1163 21.2821 14.4113 21.0492 13.9375 20.5753C13.1454 19.7832 13.1076 18.4835 13.8534 17.6859C14.4495 17.0484 15.1767 16.8306 16.0025 17.0424Z" fill="#003154"/>
<path fill-rule="evenodd" clip-rule="evenodd" d="M44.1335 0.0593128C43.9731 0.136583 43.304 1.1789 42.8995 1.982C42.4336 2.90685 42.3675 3.49897 42.6632 4.09963C42.8549 4.48907 43.175 4.80711 43.5613 4.99215C43.8428 5.12698 43.9041 5.1382 44.3588 5.1382C44.7942 5.1382 44.8824 5.1237 45.1177 5.0134C45.7623 4.71122 46.2355 3.99942 46.2355 3.33195C46.2355 2.86993 45.8267 1.92697 45.1645 0.861192C44.6533 0.0384353 44.4711 -0.103249 44.1335 0.0593128ZM44.6969 1.9128C45.0527 2.53622 45.2972 3.11314 45.2972 3.32956C45.2972 3.51309 45.1836 3.78937 45.0486 3.93406C44.7368 4.26829 44.1472 4.32468 43.8093 4.05257C43.3693 3.69817 43.3169 3.29976 43.6248 2.64872C43.8485 2.17562 44.3071 1.3615 44.3498 1.36155C44.3677 1.36159 44.5239 1.60963 44.6969 1.9128ZM51.4726 3.34147C51.1653 3.45327 49.9651 5.58436 49.8246 6.26759C49.5717 7.49701 50.6809 8.64766 51.9258 8.44719C52.9857 8.27651 53.6934 7.28645 53.4838 6.26759C53.3967 5.84409 52.8482 4.73524 52.3425 3.96038C52.0449 3.50436 51.9415 3.38191 51.8178 3.33875C51.6405 3.27696 51.65 3.27687 51.4726 3.34147ZM39.7019 3.80889C39.5571 3.86181 39.0263 4.59857 38.0854 6.05305C35.5221 10.0155 34.1081 13.0076 34.0059 14.6855C33.9734 15.2191 34.0783 16.0141 34.2549 16.5733C34.8277 18.3864 36.2188 19.8065 38.018 20.4147C38.6676 20.6342 39.1406 20.7063 39.9579 20.7104L40.6943 20.7141L40.9312 21.1083C41.2615 21.6578 41.4916 21.9438 41.9676 22.3969C42.7892 23.1786 43.7291 23.6685 44.8749 23.9122C45.4201 24.0281 46.5763 24.0295 47.1109 23.9149C48.3051 23.659 49.221 23.1762 50.084 22.3478L50.538 21.9121L50.7922 22.0497C50.9319 22.1254 51.2675 22.2613 51.5379 22.3517C52.9981 22.8397 54.5908 22.6087 55.8721 21.7229C56.8291 21.0613 57.5472 20.0331 57.8552 18.8834C57.9663 18.4683 57.9805 18.3302 57.9805 17.6646C57.9805 16.9991 57.9663 16.8609 57.8552 16.4459C57.3847 14.6899 56.0284 13.3342 54.2804 12.8731C53.877 12.7666 53.7119 12.749 53.0851 12.7453C52.465 12.7416 52.2963 12.757 51.9388 12.8504C51.4521 12.9777 50.8903 13.2059 50.5526 13.4137C50.4223 13.4939 50.3074 13.5595 50.2971 13.5595C50.2869 13.5595 50.1583 13.3345 50.0114 13.0594C49.645 12.3733 49.048 11.3568 48.4036 10.3224C47.6557 9.12165 46.3836 7.2364 46.2654 7.15368C46.2117 7.11601 46.0852 7.08519 45.9843 7.08519C45.7321 7.08519 45.6597 7.17132 44.7133 8.59671L43.9185 9.79409L43.4094 8.90387C42.7555 7.76025 41.9112 6.4135 40.9638 5.0028C40.3588 4.10197 40.1812 3.86965 40.0581 3.81818C39.8832 3.74513 39.8771 3.74495 39.7019 3.80889ZM52.0512 5.3024C52.6037 6.29114 52.6889 6.64625 52.469 7.04465C52.3431 7.27271 52.1253 7.43743 51.8526 7.51085C51.2277 7.67914 50.5769 7.03644 50.7425 6.41448C50.8086 6.16607 51.1357 5.48645 51.423 5.00064C51.6797 4.56648 51.6252 4.54026 52.0512 5.3024ZM40.5473 6.06478C41.5841 7.64123 42.6681 9.43603 43.2058 10.4668L43.3424 10.7284L43.0601 11.194C41.8103 13.2553 40.8703 15.1472 40.451 16.4456C40.1733 17.3053 40.1205 17.655 40.1506 18.4361C40.1651 18.8117 40.2105 19.254 40.2516 19.419C40.2926 19.584 40.3133 19.7318 40.2976 19.7474C40.2385 19.806 39.3003 19.7642 38.9167 19.6858C37.9858 19.4956 37.1964 19.0849 36.5023 18.4298C35.7913 17.7586 35.3282 16.9835 35.084 16.0557C34.9863 15.6846 34.963 15.4832 34.9583 14.967C34.9532 14.408 34.9677 14.2792 35.082 13.8698C35.5569 12.169 37.0223 9.38517 39.1163 6.20552C39.5284 5.57976 39.8715 5.06782 39.8786 5.06782C39.8857 5.06782 40.1867 5.51647 40.5473 6.06478ZM46.6464 9.3254C47.7189 10.9559 48.4184 12.1063 49.1484 13.4396L49.5579 14.1876L49.3159 14.4554C48.8334 14.9894 48.4046 15.856 48.2222 16.666C48.1044 17.1892 48.1148 18.2089 48.2433 18.7299C48.4697 19.6484 48.8464 20.3656 49.4314 20.992L49.7686 21.353L49.5385 21.5892C48.5601 22.5932 47.1254 23.1486 45.7194 23.0674C44.4939 22.9967 43.4105 22.5093 42.5248 21.6303C41.7853 20.8964 41.3535 20.0908 41.1431 19.0526C41.027 18.4793 41.0666 17.6191 41.2353 17.0547C41.6463 15.6792 42.7774 13.4202 44.2302 11.073C44.8351 10.0957 45.9588 8.39882 46.001 8.39882C46.0207 8.39882 46.3112 8.81576 46.6464 9.3254ZM54 13.7692C55.0038 14.0333 55.8352 14.6205 56.3944 15.4604C57.7608 17.5127 56.9752 20.2507 54.7199 21.2964C54.1129 21.5778 53.7742 21.648 53.0382 21.6449C52.4904 21.6426 52.3481 21.6251 51.9849 21.5158C50.5905 21.0959 49.5511 20.0323 49.1845 18.6499C49.0436 18.1184 49.0442 17.2069 49.1857 16.6794C49.6069 15.1104 50.8315 13.9956 52.4593 13.6993C52.7793 13.641 53.6655 13.6813 54 13.7692ZM51.8079 14.6648C51.6471 14.752 51.5838 14.8688 51.5838 15.0782C51.5838 15.2089 51.6894 15.4017 52.0999 16.0205C52.5401 16.684 52.616 16.8259 52.616 16.9852V17.172H52.3812C52.161 17.172 52.0996 17.1409 51.4003 16.6749C50.6032 16.1438 50.4503 16.0887 50.2097 16.2464C50.1444 16.2892 50.0665 16.3981 50.0367 16.4883C49.9461 16.7631 50.0552 16.9111 50.6247 17.2851C50.8963 17.4634 51.1289 17.6263 51.1418 17.6471C51.1546 17.6678 50.9226 17.8457 50.6262 18.0422C50.1905 18.3312 50.0773 18.4296 50.0357 18.5559C49.9726 18.7469 50.0651 19.0109 50.225 19.0965C50.4746 19.23 50.6172 19.1751 51.4408 18.6279C52.1509 18.1562 52.2475 18.1055 52.411 18.1189C52.5878 18.1334 52.5929 18.1388 52.6068 18.3304C52.62 18.5122 52.5821 18.5853 52.1025 19.3028C51.6828 19.9307 51.5838 20.1108 51.5838 20.247C51.5838 20.4773 51.6556 20.5924 51.8497 20.6735C52.1514 20.7996 52.2886 20.7097 52.6708 20.1352C52.8539 19.8601 53.02 19.617 53.04 19.5949C53.06 19.5728 53.2298 19.7839 53.4174 20.0641C53.605 20.3442 53.7918 20.5988 53.8324 20.6298C54.0593 20.8033 54.3935 20.7094 54.5241 20.4355C54.6278 20.2181 54.5893 20.1294 54.0277 19.2896C53.5845 18.6269 53.5543 18.5667 53.5543 18.346V18.1103H53.739C53.8955 18.1103 54.0408 18.188 54.689 18.618C55.11 18.8971 55.5052 19.1388 55.5673 19.155C55.7312 19.1977 55.9762 19.0781 56.0612 18.9139C56.2241 18.5988 56.1231 18.4432 55.4792 18.0174C55.1927 17.8279 54.9748 17.658 54.9952 17.6397C55.0155 17.6215 55.2558 17.4577 55.5292 17.2758C55.8863 17.0382 56.0433 16.904 56.0868 16.7989C56.1661 16.6076 56.1045 16.3912 55.9347 16.2644C55.6953 16.0856 55.556 16.1337 54.7457 16.6746C54.0599 17.1323 53.9826 17.172 53.7774 17.172H53.5543V16.9598C53.5543 16.7689 53.6019 16.6764 54.0277 16.0397C54.5893 15.1999 54.6278 15.1112 54.5241 14.8938C54.4172 14.6696 54.1994 14.5662 53.9754 14.6334C53.8256 14.6782 53.7546 14.7568 53.4591 15.2035C53.2707 15.4885 53.1016 15.731 53.0833 15.7423C53.0649 15.7536 52.8956 15.5296 52.7071 15.2444C52.2851 14.6062 52.1163 14.4974 51.8079 14.6648Z" fill="#003154"/>
<path fill-rule="evenodd" clip-rule="evenodd" d="M77.9693 0.0311467C75.2634 0.330799 72.9357 1.45986 71.094 3.36608C69.7236 4.78456 68.8054 6.42324 68.3273 8.30426C68.0676 9.32575 67.9987 9.90999 68 11.0799C68.0013 12.2389 68.0658 12.7816 68.3235 13.8019C69.4056 18.0862 72.9972 21.3199 77.4548 22.023C78.2057 22.1414 79.8925 22.141 80.6209 22.0222C81.241 21.921 81.9708 21.7477 82.4194 21.5951L82.7481 21.4834L82.9264 21.7725C83.1663 22.1615 83.8095 22.8207 84.2388 23.1174C86.7207 24.8332 90.1314 23.9585 91.4666 21.2638C91.6117 20.9709 91.7762 20.5446 91.8468 20.2783C91.9571 19.8625 91.9712 19.7234 91.9702 19.0581C91.9692 18.4015 91.9538 18.2499 91.8478 17.8517C91.6995 17.2948 91.4313 16.7116 91.1097 16.2464C90.813 15.8171 90.1538 15.1739 89.7646 14.9339L89.4753 14.7555L89.5677 14.4899C89.718 14.058 89.9301 13.143 90.0148 12.5609C90.1129 11.8871 90.125 10.3323 90.0372 9.69543C89.5178 5.93154 87.2699 2.76251 83.9697 1.14195C82.8803 0.606985 81.7817 0.261904 80.6439 0.0973189C80.0064 0.0050533 78.5338 -0.0313649 77.9693 0.0311467ZM79.9941 0.9676C82.7427 1.24022 85.2542 2.60243 86.9598 4.7457C89.0002 7.30966 89.6829 10.6824 88.7933 13.8019C88.6241 14.3949 88.6693 14.369 88.0594 14.2234C87.4996 14.0898 86.477 14.1073 85.8971 14.2603C84.5106 14.6262 83.511 15.3856 82.7255 16.6698C82.6756 16.7513 82.6441 16.7321 82.3329 16.43C81.4256 15.549 80.7771 14.4446 80.4506 13.2242L80.3462 12.8343L80.5401 12.6404L80.734 12.4465L82.2966 12.7139C83.9781 13.0015 84.442 13.0359 84.9404 12.9097C86.0179 12.637 86.892 11.7086 87.0982 10.6182C87.1996 10.0819 87.1971 7.84012 87.0947 7.49541C86.9499 7.00804 86.4609 6.64587 85.9475 6.64587C85.5714 6.64587 85.2655 6.80375 84.9829 7.14376C83.914 8.43018 82.7083 9.23602 81.2624 9.63033L80.8245 9.74977L80.6352 9.54661L80.4459 9.34344L80.7108 7.77127C80.9944 6.08871 81.0262 5.65423 80.9018 5.16474C80.7309 4.49251 80.2459 3.80634 79.6727 3.42587C79.5254 3.32811 79.2244 3.18348 79.0039 3.10449L78.6029 2.96088H77.0542H75.5055L75.2545 3.09989C74.7035 3.40508 74.4834 4.08337 74.7498 4.65536C74.8334 4.83501 74.9596 4.97712 75.2538 5.22303C75.7954 5.67563 76.3465 6.26958 76.6658 6.74485C77.0097 7.25658 77.4164 8.10532 77.5624 8.61602C77.7598 9.30609 77.7613 9.27253 77.5247 9.47405L77.3164 9.65154L75.7774 9.38503C74.1008 9.09462 73.656 9.0628 73.1413 9.19646C72.3709 9.39643 71.5847 10.0332 71.2426 10.7342C70.954 11.3257 70.9228 11.578 70.939 13.1889C70.9525 14.5314 70.9581 14.6088 71.0547 14.7874C71.2881 15.2191 71.6502 15.4403 72.1275 15.4427C72.5825 15.4451 72.838 15.3093 73.1884 14.8788C74.0846 13.778 75.2649 12.9576 76.5145 12.5671C77.2697 12.331 77.2435 12.3311 77.4588 12.5644L77.646 12.7672L77.3784 14.317C77.0854 16.0135 77.0551 16.4472 77.1929 16.9697C77.448 17.9367 78.2333 18.7404 79.2365 19.0612C79.4492 19.1292 79.723 19.1472 80.7941 19.1639L82.0936 19.1841L82.1228 19.4496C82.1612 19.797 82.2674 20.3387 82.329 20.5002L82.3777 20.6282L81.9921 20.7451C80.9741 21.0539 80.242 21.1587 79.0722 21.163C78.0276 21.1669 77.4402 21.0975 76.5312 20.8632C73.1889 20.0014 70.5001 17.4827 69.4303 14.2115C68.3822 11.0067 68.9493 7.62959 70.9916 4.91367C71.3816 4.39499 72.2103 3.54245 72.6995 3.15644C74.7843 1.51167 77.4412 0.714409 79.9941 0.9676ZM78.5579 3.9484C79.1361 4.09806 79.5972 4.48683 79.8627 5.0485C80.0931 5.53625 80.0878 5.88616 79.8267 7.39583C79.7085 8.07984 79.6005 8.69303 79.5868 8.7585C79.5621 8.87681 79.5592 8.87747 79.0886 8.87236L78.6153 8.86719L78.465 8.37789C78.1146 7.23654 77.597 6.30389 76.8319 5.43497C76.5643 5.13109 76.3712 4.94825 75.7474 4.40799C75.5595 4.24523 75.5288 4.09965 75.6536 3.96187C75.7252 3.88274 75.8306 3.87603 77.0047 3.87603C78 3.87603 78.3393 3.89185 78.5579 3.9484ZM86.1561 7.68787C86.2176 7.77568 86.2291 7.98274 86.2291 8.99959C86.2291 9.70833 86.2075 10.3097 86.1768 10.4557C86.0487 11.0637 85.6465 11.5794 85.0853 11.8551C84.5694 12.1086 84.2593 12.1032 82.5762 11.8114C81.8189 11.6801 81.1938 11.5726 81.187 11.5726C81.1802 11.5726 81.1928 11.4618 81.215 11.3263C81.2373 11.1908 81.2427 10.9728 81.2271 10.8419L81.1989 10.604L81.473 10.543C82.1679 10.3884 83.0771 9.97677 83.8277 9.47692C84.3954 9.09889 85.1742 8.38869 85.5791 7.87977C85.7697 7.64019 85.8405 7.58355 85.9489 7.58355C86.0343 7.58355 86.1096 7.62147 86.1561 7.68787ZM79.4201 9.86283C80.3217 10.1306 80.5907 11.3361 79.89 11.9691C79.6335 12.2009 79.4047 12.2888 79.0483 12.2927C78.6694 12.2967 78.3853 12.1708 78.1171 11.8798C77.9287 11.6754 77.7816 11.3144 77.7816 11.0564C77.7816 10.5721 78.1637 10.0412 78.6274 9.88108C78.9437 9.77192 79.1017 9.76826 79.4201 9.86283ZM75.4586 10.286C76.1297 10.3994 76.7217 10.5022 76.7744 10.5145C76.8632 10.5354 76.8695 10.5705 76.8647 11.0158L76.8595 11.4946L76.4875 11.598C75.4085 11.898 74.4552 12.4084 73.5198 13.187C73.1637 13.4832 72.9057 13.7534 72.361 14.4002C72.2325 14.5528 72.092 14.5652 71.9622 14.4354C71.8731 14.3462 71.8684 14.279 71.8684 13.0843C71.8684 11.4346 71.9334 11.171 72.4726 10.633C72.8923 10.2143 73.4592 10.0007 74.0037 10.0561C74.1328 10.0692 74.7875 10.1727 75.4586 10.286ZM79.248 13.2352C79.4132 13.2139 79.4755 13.2227 79.4892 13.2695C80.0459 15.1663 80.7443 16.3119 82.024 17.4279L82.3007 17.6692L82.2405 17.953L82.1803 18.2368H81.0392C80.3803 18.2368 79.793 18.2147 79.6494 18.1845C78.6084 17.9655 77.9136 16.9829 78.0632 15.9414C78.1177 15.5616 78.4237 13.7501 78.4887 13.4219L78.5361 13.1829L78.7807 13.2234C78.9152 13.2457 79.1255 13.251 79.248 13.2352ZM88.0388 15.1867C90.1027 15.7127 91.4026 17.7819 90.974 19.8589C90.8018 20.6929 90.4333 21.353 89.8045 21.9538C88.2481 23.4408 85.8632 23.4377 84.2878 21.9468C83.7649 21.452 83.3704 20.7784 83.1732 20.0436C83.0332 19.5218 83.031 18.6014 83.1687 18.0916C83.5974 16.5041 84.8788 15.3403 86.4656 15.0972C86.8849 15.033 87.5941 15.0733 88.0388 15.1867ZM85.8222 16.0525C85.6428 16.1305 85.5721 16.2499 85.5721 16.4748C85.5721 16.6111 85.6711 16.7913 86.0909 17.4194C86.5706 18.1371 86.6086 18.2103 86.5954 18.3921C86.5813 18.5868 86.5792 18.5889 86.3845 18.6031C86.2026 18.6163 86.1294 18.5783 85.4117 18.0986C84.7636 17.6653 84.6061 17.5798 84.4572 17.5798C84.2316 17.5798 84.092 17.677 84.0247 17.8809C83.9299 18.1682 84.0331 18.3091 84.6257 18.7009C84.913 18.8909 85.1387 19.0614 85.1273 19.0799C85.1159 19.0983 84.8843 19.2594 84.6127 19.4377C84.043 19.8118 83.9338 19.9599 84.0245 20.2348C84.0543 20.3251 84.1324 20.4341 84.1979 20.477C84.4422 20.6371 84.5773 20.5887 85.3811 20.053C86.088 19.582 86.1493 19.5508 86.3697 19.5508H86.6046V19.7377C86.6046 19.8971 86.5286 20.039 86.0883 20.7028C85.648 21.3665 85.5721 21.5084 85.5721 21.6678C85.5721 21.9925 85.8896 22.2063 86.188 22.0827C86.2925 22.0394 86.4317 21.8743 86.688 21.4895C86.8833 21.1961 87.0578 20.9726 87.0758 20.9927C87.0938 21.0127 87.2574 21.2529 87.4393 21.5264C87.8052 22.0762 87.9433 22.1789 88.2127 22.1017C88.4084 22.0455 88.592 21.781 88.5571 21.6056C88.5431 21.5355 88.3093 21.1449 88.0375 20.7376C87.5828 20.0566 87.5432 19.9792 87.5432 19.774V19.5508H87.7663C87.9716 19.5508 88.0489 19.5905 88.73 20.0451C89.1372 20.3169 89.5278 20.5508 89.598 20.5647C89.7734 20.5997 90.0379 20.416 90.094 20.2203C90.1713 19.9509 90.0686 19.8128 89.5187 19.447C89.2453 19.265 89.0051 19.1014 88.985 19.0835C88.965 19.0655 89.1885 18.891 89.4818 18.6957C89.8666 18.4393 90.0317 18.3002 90.075 18.1957C90.1987 17.8972 89.9848 17.5798 89.6602 17.5798C89.5008 17.5798 89.3588 17.6557 88.6951 18.096C88.0314 18.5363 87.8894 18.6122 87.7301 18.6122H87.5432V18.3773C87.5432 18.157 87.5744 18.0957 88.0453 17.3888C88.581 16.5849 88.6294 16.4498 88.4694 16.2056C88.4264 16.14 88.3174 16.062 88.2271 16.0322C87.9522 15.9415 87.8042 16.0507 87.43 16.6204C87.2517 16.892 87.0906 17.1236 87.0722 17.135C87.0537 17.1464 86.8832 16.9206 86.6932 16.6333C86.4368 16.2453 86.3088 16.0946 86.1961 16.0475C86.0132 15.9711 86.0094 15.9711 85.8222 16.0525Z" fill="#003154"/>
<path fill-rule="evenodd" clip-rule="evenodd" d="M112.856 0.0287115C109.192 0.40451 105.955 2.37056 103.934 5.44716C100.914 10.0459 101.482 16.3004 105.279 20.2403C105.619 20.5939 105.748 20.6625 105.968 20.6092C106.146 20.5662 107.936 18.772 107.961 18.6121C107.994 18.3948 107.91 18.2308 107.598 17.8993C107.281 17.5641 106.731 16.8535 106.731 16.7803C106.731 16.7582 106.931 16.6224 107.176 16.4785C107.42 16.3346 107.642 16.1763 107.668 16.1268C107.764 15.9483 107.726 15.7041 107.579 15.5578C107.385 15.3632 107.205 15.3759 106.801 15.6127C106.17 15.982 106.245 15.9814 106.074 15.6191C105.716 14.861 105.393 13.6503 105.337 12.8563L105.31 12.4719L105.884 12.4561C106.446 12.4406 106.46 12.4376 106.571 12.3086C106.649 12.2183 106.684 12.1196 106.684 11.9944C106.684 11.8692 106.649 11.7705 106.571 11.6802C106.46 11.5513 106.446 11.5482 105.884 11.5327L105.31 11.5169L105.337 11.1325C105.393 10.3329 105.705 9.16712 106.064 8.4152L106.238 8.05095L106.684 8.30932C107.212 8.61518 107.373 8.6371 107.579 8.43106C107.726 8.28468 107.764 8.04048 107.668 7.86199C107.642 7.81252 107.42 7.65426 107.176 7.51032C106.931 7.36637 106.731 7.23641 106.731 7.22144C106.731 7.11401 107.371 6.33223 107.857 5.8461C108.344 5.35996 109.125 4.71969 109.233 4.71969C109.248 4.71969 109.378 4.91976 109.522 5.16434C109.666 5.40891 109.824 5.63067 109.873 5.65714C110.052 5.7527 110.296 5.71445 110.442 5.56811C110.648 5.36202 110.627 5.20062 110.321 4.67275L110.062 4.22688L110.427 4.05299C111.178 3.694 112.344 3.38189 113.144 3.32543L113.528 3.2983L113.544 3.87235C113.56 4.43461 113.563 4.44874 113.692 4.5596C113.87 4.71307 114.141 4.71307 114.32 4.5596C114.449 4.44874 114.452 4.43461 114.467 3.87235L114.483 3.2983L114.868 3.32543C115.667 3.38189 116.833 3.694 117.585 4.05299L117.949 4.22688L117.691 4.67275C117.385 5.20062 117.363 5.36202 117.569 5.56811C117.715 5.71445 117.96 5.7527 118.138 5.65714C118.188 5.63067 118.346 5.40891 118.49 5.16434C118.634 4.91976 118.764 4.71969 118.779 4.71969C118.886 4.71969 119.668 5.35996 120.154 5.8461C120.64 6.33223 121.28 7.11401 121.28 7.22144C121.28 7.23641 121.08 7.36637 120.836 7.51032C120.591 7.65426 120.369 7.81252 120.343 7.86199C120.247 8.04048 120.286 8.28468 120.432 8.43106C120.637 8.63644 120.799 8.61481 121.327 8.31133L121.773 8.05512L121.947 8.41731C122.305 9.16205 122.618 10.3317 122.675 11.1325L122.702 11.5169L122.128 11.5327C121.566 11.5482 121.551 11.5513 121.441 11.6802C121.287 11.8588 121.287 12.13 121.441 12.3086C121.551 12.4376 121.566 12.4406 122.128 12.4561L122.702 12.4719L122.675 12.8563C122.646 13.2679 122.471 14.2 122.412 14.2602C122.392 14.2802 122.23 14.2608 122.051 14.2171C121.618 14.1112 120.544 14.1099 120.079 14.2147C119.066 14.4433 118.212 14.9192 117.524 15.6393C116.997 16.1914 116.685 16.6837 116.443 17.3462C115.914 18.7946 116.059 20.2998 116.855 21.6306C117.136 22.1006 117.789 22.7935 118.254 23.1153C120.74 24.8334 124.15 23.9604 125.486 21.2638C125.631 20.9709 125.795 20.5446 125.866 20.2782C125.976 19.8624 125.99 19.7233 125.989 19.0579C125.988 18.3973 125.973 18.2505 125.864 17.8377C125.792 17.5669 125.629 17.1461 125.479 16.8431L125.218 16.3178L125.364 15.9044C126.349 13.1143 126.201 9.80603 124.97 7.07524C123.92 4.74827 122.114 2.77363 119.876 1.50618C118.669 0.822876 117.145 0.310267 115.672 0.0921189C115.098 0.00712196 113.432 -0.030378 112.856 0.0287115ZM115.625 1.03427C118 1.40054 120.121 2.47649 121.822 4.17779C122.707 5.06249 123.352 5.95278 123.911 7.06271C124.432 8.0976 124.789 9.23001 124.97 10.4221C125.088 11.1979 125.089 12.7871 124.973 13.5432C124.883 14.1288 124.758 14.6975 124.608 15.2009L124.513 15.521L124.305 15.329C124.116 15.1553 123.462 14.7007 123.344 14.6614C123.314 14.6512 123.332 14.5035 123.392 14.259C123.858 12.3887 123.71 10.2769 122.985 8.45092C121.94 5.82033 119.739 3.73032 117.083 2.84717C114.636 2.03339 112.068 2.20343 109.758 3.33223C107.447 4.46174 105.669 6.49472 104.85 8.94348C103.804 12.0722 104.435 15.5322 106.517 18.0891L106.837 18.4814L106.35 18.9694C106.083 19.2377 105.848 19.4519 105.828 19.4453C105.744 19.4173 105.098 18.5931 104.753 18.0736C103.88 16.7606 103.281 15.1825 103.039 13.5598C102.924 12.7859 102.925 11.1485 103.041 10.3987C103.702 6.14938 106.583 2.77053 110.687 1.43198C111.386 1.20407 112.067 1.06998 113.161 0.945092C113.511 0.905104 115.179 0.965508 115.625 1.03427ZM113.693 5.76997L113.564 5.88162L113.111 9.2548L112.658 12.628L112.358 12.9331C111.879 13.42 111.659 13.9374 111.659 14.5758C111.659 15.6827 112.423 16.6356 113.504 16.8776C113.846 16.9542 114.478 16.9136 114.811 16.7935C115.721 16.4658 116.352 15.5566 116.352 14.5758C116.352 13.9374 116.132 13.42 115.653 12.9331L115.353 12.628L114.901 9.2548L114.448 5.88162L114.318 5.76997C114.229 5.69384 114.13 5.65836 114.006 5.65836C113.881 5.65836 113.782 5.69384 113.693 5.76997ZM114.185 10.9971C114.268 11.636 114.336 12.1798 114.335 12.2056C114.335 12.2323 114.193 12.2525 114.006 12.2525C113.819 12.2525 113.677 12.2323 113.676 12.2056C113.673 12.0619 113.982 9.83546 114.006 9.83546C114.021 9.83546 114.102 10.3582 114.185 10.9971ZM114.636 13.3285C115.254 13.6306 115.547 14.3293 115.346 15.0204C115.242 15.3758 114.851 15.7865 114.502 15.9051C113.952 16.092 113.421 15.9694 113.013 15.561C112.721 15.2696 112.597 14.9775 112.598 14.579C112.599 13.5364 113.692 12.8663 114.636 13.3285ZM122.058 15.1863C124.122 15.7124 125.422 17.7817 124.993 19.8589C124.821 20.6928 124.452 21.353 123.824 21.9538C122.267 23.4409 119.882 23.4379 118.306 21.9468C117.784 21.452 117.389 20.7784 117.192 20.0435C117.052 19.5217 117.05 18.6012 117.187 18.0914C117.616 16.5038 118.897 15.3399 120.484 15.0968C120.904 15.0326 121.613 15.0729 122.058 15.1863ZM119.841 16.0522C119.662 16.1302 119.591 16.2496 119.591 16.4745C119.591 16.6108 119.69 16.791 120.11 17.4191C120.589 18.1369 120.627 18.2101 120.614 18.3919C120.6 18.5867 120.598 18.5887 120.403 18.6029C120.221 18.6161 120.148 18.5781 119.43 18.0984C118.782 17.6651 118.625 17.5795 118.476 17.5795C118.25 17.5795 118.111 17.6768 118.043 17.8807C117.948 18.168 118.052 18.3089 118.644 18.7007C118.932 18.8907 119.157 19.0613 119.146 19.0797C119.135 19.0982 118.903 19.2592 118.631 19.4376C118.062 19.8117 117.952 19.9598 118.043 20.2347C118.073 20.325 118.151 20.434 118.217 20.477C118.461 20.637 118.596 20.5886 119.4 20.0529C120.107 19.5819 120.168 19.5507 120.388 19.5507H120.623V19.7376C120.623 19.897 120.547 20.0389 120.107 20.7027C119.667 21.3665 119.591 21.5084 119.591 21.6679C119.591 21.9926 119.908 22.2064 120.207 22.0827C120.311 22.0394 120.45 21.8743 120.707 21.4895C120.902 21.1961 121.077 20.9726 121.095 20.9927C121.113 21.0127 121.276 21.2529 121.458 21.5264C121.824 22.0763 121.962 22.179 122.232 22.1017C122.427 22.0456 122.611 21.7811 122.576 21.6056C122.562 21.5355 122.328 21.1449 122.056 20.7376C121.602 20.0565 121.562 19.9791 121.562 19.7739V19.5507H121.785C121.99 19.5507 122.068 19.5904 122.749 20.045C123.156 20.3169 123.547 20.5507 123.617 20.5647C123.792 20.5996 124.057 20.416 124.113 20.2202C124.19 19.9508 124.088 19.8127 123.538 19.4469C123.264 19.2649 123.024 19.1013 123.004 19.0833C122.984 19.0653 123.207 18.8908 123.501 18.6955C123.886 18.4392 124.051 18.3 124.094 18.1955C124.218 17.897 124.004 17.5795 123.679 17.5795C123.52 17.5795 123.378 17.6554 122.714 18.0958C122.05 18.5361 121.908 18.6121 121.749 18.6121H121.562V18.3772C121.562 18.1568 121.593 18.0955 122.064 17.3885C122.6 16.5846 122.648 16.4495 122.488 16.2053C122.445 16.1397 122.336 16.0616 122.246 16.0318C121.971 15.9411 121.823 16.0503 121.449 16.6201C121.271 16.8917 121.109 17.1233 121.091 17.1347C121.073 17.1461 120.902 16.9203 120.712 16.633C120.456 16.245 120.328 16.0943 120.215 16.0472C120.032 15.9707 120.028 15.9708 119.841 16.0522Z" fill="#003154"/>
</svg>
