<svg xmlns="http://www.w3.org/2000/svg" xmlns:xlink="http://www.w3.org/1999/xlink"><symbol id="burger" viewBox="0 0 18 16"><g fill="none"><path fill-rule="evenodd" clip-rule="evenodd" d="M.25 14.667c0-.221.084-.433.233-.59a.778.778 0 0 1 .562-.244h15.91c.21 0 .413.088.562.244.15.157.233.369.233.59a.854.854 0 0 1-.233.589.778.778 0 0 1-.563.244H1.045a.778.778 0 0 1-.562-.244.854.854 0 0 1-.233-.59ZM.25 8c0-.221.084-.433.233-.59a.778.778 0 0 1 .562-.243h15.91c.21 0 .413.087.562.244.15.156.233.368.233.589a.854.854 0 0 1-.233.59.778.778 0 0 1-.563.243H1.045a.778.778 0 0 1-.562-.244A.854.854 0 0 1 .25 8Zm0-6.667c0-.22.084-.433.233-.589A.778.778 0 0 1 1.045.5h15.91c.21 0 .413.088.562.244.15.156.233.368.233.59a.854.854 0 0 1-.233.589.778.778 0 0 1-.563.244H1.045a.778.778 0 0 1-.562-.244.854.854 0 0 1-.233-.59Z" fill="#1E1E1E"/><path fill-rule="evenodd" clip-rule="evenodd" d="M1.045.563c-.193 0-.38.08-.517.224a.791.791 0 0 0-.216.546c0 .206.078.402.216.546a.715.715 0 0 0 .517.225h15.91c.193 0 .38-.08.517-.225a.791.791 0 0 0 .215-.546.791.791 0 0 0-.215-.546.715.715 0 0 0-.518-.225H1.045ZM.438.7a.84.84 0 0 1 .607-.263h15.91a.84.84 0 0 1 .607.263c.16.168.25.396.25.632 0 .237-.09.465-.25.633a.84.84 0 0 1-.608.263H1.045a.84.84 0 0 1-.607-.263.916.916 0 0 1-.25-.633c0-.236.09-.464.25-.632Zm.607 6.528c-.193 0-.38.08-.517.225A.791.791 0 0 0 .312 8c0 .205.078.402.216.546a.715.715 0 0 0 .517.225h15.91c.193 0 .38-.08.517-.225A.791.791 0 0 0 17.687 8a.791.791 0 0 0-.215-.546.715.715 0 0 0-.518-.225H1.045Zm-.607.139a.84.84 0 0 1 .607-.264h15.91a.84.84 0 0 1 .607.264c.16.168.25.395.25.632s-.09.464-.25.632a.84.84 0 0 1-.608.264H1.045a.84.84 0 0 1-.607-.264A.916.916 0 0 1 .188 8c0-.237.09-.464.25-.632Zm.607 6.528c-.193 0-.38.08-.517.225a.791.791 0 0 0-.216.546c0 .205.078.401.216.546a.715.715 0 0 0 .517.225h15.91c.193 0 .38-.081.517-.225a.792.792 0 0 0 .215-.546.791.791 0 0 0-.215-.546.715.715 0 0 0-.518-.225H1.045Zm-.607.138a.84.84 0 0 1 .607-.263h15.91a.84.84 0 0 1 .607.263c.16.168.25.396.25.633 0 .236-.09.464-.25.632a.84.84 0 0 1-.608.264H1.045a.84.84 0 0 1-.607-.264.916.916 0 0 1-.25-.632c0-.237.09-.464.25-.633Z" fill="#1E1E1E"/></g></symbol><symbol id="footer-arrow"><g fill="none"><path d="m9.5 3.938-7.333 7m1.222-7H9.5V9.77" stroke="#EAEAEA" stroke-width="1.3" stroke-linecap="round" stroke-linejoin="round"/></g></symbol><symbol id="pinterest" viewBox="0 0 24 24"><path d="M12 0C5.37 0 0 5.373 0 12.009c0 5.085 3.153 9.43 7.622 11.18-.108-.956-.199-2.399.036-3.444.216-.938 1.405-5.969 1.405-5.969s-.36-.721-.36-1.785c0-1.677.973-2.921 2.162-2.921 1.027 0 1.513.775 1.513 1.695 0 1.028-.648 2.578-.99 4.003-.289 1.19.594 2.164 1.783 2.164 2.126 0 3.766-2.254 3.766-5.5 0-2.867-2.072-4.887-5.01-4.887-3.404 0-5.422 2.56-5.422 5.212 0 1.027.396 2.145.9 2.74.09.127.109.217.09.343-.09.379-.288 1.19-.324 1.352-.054.217-.18.27-.396.163-1.496-.704-2.433-2.885-2.433-4.652 0-3.787 2.757-7.267 7.928-7.267 4.162 0 7.388 2.975 7.388 6.924 0 4.13-2.613 7.465-6.217 7.465-1.207 0-2.36-.631-2.756-1.37l-.74 2.849c-.27 1.045-1.008 2.344-1.495 3.155 1.118.343 2.307.541 3.55.541 6.63 0 12-5.373 12-12.009C24 5.373 18.63 0 12 0Z"/></symbol><symbol id="search" viewBox="0 0 18 18"><g fill="none"><path d="M7.784.25C3.632.25.25 3.632.25 7.784c0 4.153 3.382 7.535 7.534 7.535a7.498 7.498 0 0 0 4.785-1.717h.008l3.926 3.934a.731.731 0 0 0 1.033 0 .722.722 0 0 0 0-1.025l-3.941-3.934v-.008a7.504 7.504 0 0 0 1.724-4.785c0-4.152-3.382-7.534-7.535-7.534Zm0 1.458a6.065 6.065 0 0 1 6.076 6.076 6.065 6.065 0 0 1-6.076 6.076 6.065 6.065 0 0 1-6.076-6.076 6.065 6.065 0 0 1 6.076-6.076Z" fill="#1E1E1E"/><path fill-rule="evenodd" clip-rule="evenodd" d="M.188 7.784c0-4.187 3.41-7.596 7.596-7.596h.074c4.153.04 7.523 3.434 7.523 7.596a7.565 7.565 0 0 1-1.706 4.785l3.906 3.898c.309.309.309.805 0 1.114a.794.794 0 0 1-1.122 0l-3.89-3.898a7.56 7.56 0 0 1-4.785 1.698c-4.187 0-7.596-3.41-7.596-7.597ZM7.75.313C3.648.33.312 3.678.312 7.784c0 4.118 3.354 7.472 7.472 7.472 1.8 0 3.454-.637 4.746-1.702l.017-.014h.056l3.945 3.952c.26.26.684.26.944 0a.66.66 0 0 0 0-.937l-3.974-3.966.014-.027.001-.005a.063.063 0 0 1 .013-.027 7.442 7.442 0 0 0 1.71-4.746c0-4.118-3.354-7.471-7.472-7.471h-.033Zm.033 1.458a6.003 6.003 0 0 0-6.013 6.013 6.003 6.003 0 0 0 6.013 6.014 6.003 6.003 0 0 0 6.014-6.014 6.003 6.003 0 0 0-6.014-6.013ZM1.646 7.784a6.128 6.128 0 0 1 6.138-6.138 6.128 6.128 0 0 1 6.139 6.138 6.128 6.128 0 0 1-6.139 6.139 6.128 6.128 0 0 1-6.138-6.139Z" fill="#1E1E1E"/></g></symbol><symbol id="tg" viewBox="0 0 24 24"><path d="M1.471 10.71s10.615-4.39 14.296-5.936c1.412-.619 6.197-2.597 6.197-2.597s2.21-.866 2.025 1.236c-.061.866-.552 3.896-1.043 7.173-.736 4.638-1.534 9.709-1.534 9.709s-.123 1.422-1.166 1.67c-1.043.247-2.76-.866-3.067-1.114-.246-.185-4.602-2.968-6.197-4.328-.43-.371-.92-1.113.06-1.979 2.21-2.04 4.848-4.576 6.443-6.184.737-.742 1.473-2.473-1.595-.37-4.356 3.03-8.651 5.874-8.651 5.874s-.982.618-2.823.061a126.724 126.724 0 0 1-3.988-1.298s-1.472-.928 1.043-1.917Z"/></symbol><symbol id="vk" viewBox="0 0 24 24"><path d="M13.072 19C4.872 19 .195 13.37 0 4h4.107c.135 6.877 3.163 9.79 5.562 10.39V4h3.868v5.93c2.368-.254 4.856-2.957 5.696-5.93H23.1c-.644 3.664-3.343 6.366-5.261 7.477C19.758 12.378 22.83 14.736 24 19h-4.258c-.914-2.853-3.192-5.06-6.205-5.36V19h-.465Z"/></symbol><symbol id="youtube" viewBox="0 0 24 24"><path d="M22.98 5.34c-.651-1.158-1.358-1.371-2.796-1.452-1.437-.097-5.05-.138-8.181-.138-3.136 0-6.752.04-8.187.136-1.435.083-2.143.295-2.8 1.454C.345 6.497 0 8.489 0 11.995v.012c0 3.492.345 5.5 1.016 6.644.657 1.158 1.363 1.368 2.798 1.465 1.438.085 5.053.134 8.189.134 3.13 0 6.744-.05 8.183-.132 1.438-.098 2.145-.307 2.796-1.465C23.657 17.508 24 15.5 24 12.008v-.012c0-3.508-.342-5.5-1.02-6.657ZM9 16.5v-9l7.5 4.5L9 16.5Z"/></symbol></svg>